<svg width="42" height="42" viewBox="0 0 42 42" fill="none" xmlns="http://www.w3.org/2000/svg">
<path d="M38.8027 0.647461H38.8076L39.0498 0.683594C40.2423 0.919985 41.1413 1.97266 41.1416 3.23438V39.0176C41.1416 40.4533 39.9777 41.6179 38.542 41.6182H3.02539C1.58945 41.6182 0.424805 40.4535 0.424805 39.0176V3.23438C0.425198 1.79873 1.58972 0.634766 3.02539 0.634766H38.5469L38.8027 0.647461ZM4.3252 37.7178H37.2422V4.53418H4.3252V37.7178ZM14.623 26.8369C14.954 26.8369 15.2234 27.1051 15.2236 27.4365V29.9697C15.2236 30.301 14.955 30.569 14.624 30.5693H12.0898C11.7585 30.5693 11.4902 30.3011 11.4902 29.9697V27.4365C11.4904 27.1053 11.7586 26.8369 12.0898 26.8369H14.623ZM27.1045 12.0127C27.8143 12.0127 28.3552 12.0123 28.7627 12.0576C29.1691 12.1028 29.4651 12.195 29.668 12.3975C29.8708 12.6003 29.9635 12.8971 30.0088 13.3037C30.0541 13.7112 30.0537 14.2523 30.0537 14.9619V22.9141C30.0537 23.2465 29.7835 23.5107 29.4531 23.5107H26.7539C26.4225 23.5107 26.1543 23.2425 26.1543 22.9111V16.3115C26.1541 16.091 25.974 15.9111 25.7529 15.9111H20.2695C19.9382 15.9111 19.67 15.6428 19.6699 15.3115V12.6123C19.6701 12.2814 19.9374 12.013 20.2686 12.0127H27.1045Z" fill="#5D5D5D"/>
</svg>
