<svg width="803" height="152" viewBox="0 0 803 152" fill="none" xmlns="http://www.w3.org/2000/svg">
<g clip-path="url(#clip0_3458_101)">
<path d="M511 2H393V31H511V2Z" fill="#4129D5"/>
<path d="M481 61H422V90H481V61Z" fill="#F52F98"/>
<path d="M511 120H393V149H511V120Z" fill="#00D3BB"/>
<path d="M90.6 67.3C83.8 64.4 75.2 61.7 64.7 59C58.4 57.3 53.5 55.9 50 54.7C46.5 53.5 43.6 51.9 41.3 50C39 48 37.8 45.6 37.8 42.7C37.8 39.8 38.6 37.7 40.3 35.6C42 33.5 44.3 31.9 47.1 30.7C50 29.5 53.3 28.9 57.1 28.9C63.7 28.9 69 30.7 73.1 34.1C77.2 37.6 79.7 42.3 80.9 48.2L114.7 41.3C113.4 33.3 110.4 26.2 105.6 20C100.8 13.8 94.3 8.9 86.2 5.4C77.9 1.8 68.7 0 58.3 0C47.9 0 39 1.9 30.5 5.8C22 9.6 15.4 15 10.6 21.9C5.8 28.8 3.4 36.3 3.4 44.6C3.4 52.9 5.8 62.7 10.6 68.7C15.4 74.7 21.2 79.1 27.8 81.9C34.4 84.7 42.9 87.4 53.3 90.1C59.7 91.6 64.8 93.1 68.5 94.4C72.2 95.7 75.2 97.4 77.6 99.5C80 101.6 81.2 104.2 81.2 107.3C81.2 110.4 80.3 112.6 78.5 114.9C76.7 117.1 74.1 119 70.8 120.4C67.5 121.8 63.7 122.5 59.4 122.5C52.1 122.5 46.4 120.8 42.1 117.5C37.8 114.1 35.1 109.4 33.8 103.2L0 110C2 122.5 8.2 132.4 18.7 139.9C29.2 147.4 42.5 151.1 58.6 151.1C74.7 151.1 78.9 149.1 87.6 145.2C96.3 141.3 103.1 135.9 108.2 129C113.2 122.1 115.8 114.6 115.8 106.3C115.8 98 113.3 87.2 108.3 80.9C103.3 74.6 97.5 70 90.7 67.2L90.6 67.3Z" fill="black"/>
<path d="M124 31.6996H167.9V149H201.3V31.6996H245.1V2.09961H124V31.6996Z" fill="black"/>
<path d="M350.5 92.1C358.6 88 364.9 82.3 369.3 75C373.7 67.7 375.9 59.4 375.9 50.1C375.9 40.8 373.7 33 369.3 25.5C364.9 18.1 358.6 12.3 350.5 8.2C342.4 4.1 333 2 322.4 2H258.2V148.9H291.6V98.1H307L340.3 148.9H380.2L344.6 94.6C346.7 93.9 348.7 93 350.6 92.1H350.5ZM291.5 31.7H322.4C326.2 31.7 329.5 32.5 332.4 34C335.3 35.5 337.5 37.7 339 40.6C340.5 43.5 341.3 46.7 341.3 50.1C341.3 53.5 340.5 56.8 339 59.6C337.5 62.5 335.3 64.7 332.4 66.2C329.5 67.7 326.2 68.5 322.4 68.5H291.5V31.7Z" fill="black"/>
<path d="M659.2 2.09961H649L608.8 101.6L568.8 2.09961H556.6H536.3H525.1V149H556.6V52.9996L595 149H620.8L659.2 52.9996V149H690.7V2.09961H679.6H659.2Z" fill="black"/>
<path d="M803 31.6996V2.09961H703.6V149H803V119.4H736.9V90.1996H800.9V60.8996H736.9V31.6996H803Z" fill="black"/>
</g>
<defs>
<clipPath id="clip0_3458_101">
<rect width="803" height="151.1" fill="white"/>
</clipPath>
</defs>
</svg>
