<?xml version="1.0" encoding="utf-8"?>
<svg xmlns="http://www.w3.org/2000/svg" id="Layer_1" version="1.1" viewBox="0 0 803 151.1">
  
  <defs>
    <style>
      .st0 {
        fill: #4129d5;
      }

      .st1 {
        fill: #00d3bb;
      }

      .st2 {
        fill: #f52f98;
      }
    </style>
  </defs>
  <g>
    <rect class="st0" height="29.4" width="29.4" x="392.9" y="2.1"/>
    <rect class="st0" height="29.4" width="29.4" x="422.3" y="2.1"/>
    <rect class="st0" height="29.4" width="29.4" x="451.7" y="2.1"/>
    <rect class="st0" height="29.4" width="29.4" x="481.1" y="2.1"/>
    <rect class="st2" height="29.4" width="29.4" x="422.3" y="60.9"/>
    <rect class="st2" height="29.4" width="29.4" x="451.7" y="60.9"/>
    <rect class="st1" height="29.4" width="29.4" x="392.9" y="119.6"/>
    <rect class="st1" height="29.4" width="29.4" x="422.3" y="119.6"/>
    <rect class="st1" height="29.4" width="29.4" x="451.7" y="119.6"/>
    <rect class="st1" height="29.4" width="29.4" x="481.1" y="119.6"/>
  </g>
  <g>
    <path d="M90.6,67.3c-6.8-2.9-15.4-5.6-25.9-8.3-6.3-1.7-11.2-3.1-14.7-4.3-3.5-1.2-6.4-2.8-8.7-4.7-2.3-2-3.5-4.4-3.5-7.3s.8-5,2.5-7.1c1.7-2.1,4-3.7,6.8-4.9,2.9-1.2,6.2-1.8,10-1.8,6.6,0,11.9,1.8,16,5.2,4.1,3.5,6.6,8.2,7.8,14.1l33.8-6.9c-1.3-8-4.3-15.1-9.1-21.3-4.8-6.2-11.3-11.1-19.4-14.6C77.9,1.8,68.7,0,58.3,0s-19.3,1.9-27.8,5.8c-8.5,3.8-15.1,9.2-19.9,16.1-4.8,6.9-7.2,14.4-7.2,22.7s2.4,18.1,7.2,24.1c4.8,6,10.6,10.4,17.2,13.2,6.6,2.8,15.1,5.5,25.5,8.2,6.4,1.5,11.5,3,15.2,4.3,3.7,1.3,6.7,3,9.1,5.1,2.4,2.1,3.6,4.7,3.6,7.8s-.9,5.3-2.7,7.6c-1.8,2.2-4.4,4.1-7.7,5.5-3.3,1.4-7.1,2.1-11.4,2.1-7.3,0-13-1.7-17.3-5-4.3-3.4-7-8.1-8.3-14.3L0,110c2,12.5,8.2,22.4,18.7,29.9,10.5,7.5,23.8,11.2,39.9,11.2s20.3-2,29-5.9c8.7-3.9,15.5-9.3,20.6-16.2,5-6.9,7.6-14.4,7.6-22.7s-2.5-19.1-7.5-25.4c-5-6.3-10.8-10.9-17.6-13.7Z"/>
    <polygon points="124 31.7 167.9 31.7 167.9 149 201.3 149 201.3 31.7 245.1 31.7 245.1 2.1 124 2.1 124 31.7"/>
    <path d="M350.5,92.1c8.1-4.1,14.4-9.8,18.8-17.1,4.4-7.3,6.6-15.6,6.6-24.9s-2.2-17.1-6.6-24.6c-4.4-7.4-10.7-13.2-18.8-17.3-8.1-4.1-17.5-6.2-28.1-6.2h-64.2v146.9h33.4v-50.8h15.4l33.3,50.8h39.9l-35.6-54.3c2.1-.7,4.1-1.6,6-2.5ZM291.5,31.7h30.9c3.8,0,7.1.8,10,2.3,2.9,1.5,5.1,3.7,6.6,6.6,1.5,2.9,2.3,6.1,2.3,9.5s-.8,6.7-2.3,9.5c-1.5,2.9-3.7,5.1-6.6,6.6-2.9,1.5-6.2,2.3-10,2.3h-30.9V31.7Z"/>
    <polygon points="659.2 2.1 649 2.1 608.8 101.6 568.8 2.1 556.6 2.1 536.3 2.1 525.1 2.1 525.1 149 556.6 149 556.6 53 595 149 620.8 149 659.2 53 659.2 149 690.7 149 690.7 2.1 679.6 2.1 659.2 2.1"/>
    <polygon points="803 31.7 803 2.1 703.6 2.1 703.6 149 803 149 803 119.4 736.9 119.4 736.9 90.2 800.9 90.2 800.9 60.9 736.9 60.9 736.9 31.7 803 31.7"/>
  </g>
</svg>